<?xml version="1.0" encoding="UTF-8"?>
<svg id="Layer_2" data-name="Layer 2" xmlns="http://www.w3.org/2000/svg" viewBox="0 0 75.04 95.25">
  <defs>
    <style>
      .cls-1 {
        fill: #f5e5d0;
      }
    </style>
  </defs>
  <g id="POPLR_FLVRS" data-name="POPLR FLVRS">
    <g id="NAV">
      <g id="CART">
        <path class="cls-1" d="M69.91,42.19h4.15c.59,0,.83.96.88,1.44.1,1.13.18,4.99-.01,5.98-.05.25-.54.87-.67.87h-4.34l-.05,32.44c-.12.23-.22.7-.39.86-.59.56-5.92.09-7.19.23-2.01.23.3,1.11.63,1.32,6.04,3.88.89,12.19-4.9,9.33-4.26-2.1-3.7-8.52.88-9.7l.02-.94h-20.34c-.45.94-.57,2.04-.97,3.08-1.33,3.46-4.64,6.55-8.23,7.58-7.77,2.22-15.13-2.81-16.53-10.58-.42-.3-5.59.05-6.67-.08-.55-.07-.96-.21-1.16-.76l-.09-32.79H.79c-.13,0-.62-.62-.67-.87-.19-1-.12-4.85-.01-5.98.04-.48.28-1.44.88-1.44h3.95v-12.05c0-.09-1.03-.99-1.24-1.27-.79-1.08-1.27-2.23-1.44-3.57C3.16,17.17,5,9.12,6.3,1.03l.81-.93,60.55-.11c.91.25.99.92,1.2,1.69,1.89,7.11,2.31,15.4,3.96,22.65.07,2.71-1.25,4.31-2.9,6.18v11.66ZM20.94,2.66h-12.15l-3.09,17.55h13.21l2.02-17.55ZM36.17,2.66h-12.53l-1.93,17.55h14.46V2.66ZM52.17,2.66h-13.11v17.55h14.46l-1.35-17.55ZM66.25,2.66h-11.38l1.35,17.55h13.11l-3.09-17.55ZM18.82,22.9H5.13c-.75,3.39.88,5.69,4.34,5.97,4.46.36,8.39-1.28,9.35-5.97ZM36.17,22.9h-14.65c-.68,2.6.37,5,3,5.77,2.72-.26,5.95.7,8.57-.08,1.69-.5,3.58-3.94,3.08-5.69ZM53.72,22.9h-14.65c-.44,1.94,1.37,5.19,3.23,5.73,1.5.44,7.21.41,8.73-.04,2.38-.7,3.36-3.42,2.69-5.69ZM69.91,22.9h-13.5c.29,3.52,3.3,5.7,6.66,5.97,4.3.35,7.8-1,6.84-5.97ZM67.21,31.39c-4.25.6-8.51.12-11.47-3.27-.93,1.27-2.07,2.45-3.61,2.94-2.42.78-9.57.89-11.78-.28-1.18-.62-2-1.79-2.73-2.85-.85,1.29-1.89,2.61-3.41,3.14-2.48.87-9.74.84-12.05-.41-.96-.52-2.28-1.66-2.57-2.73-3.17,3.5-7.44,4.11-11.95,3.47v10.8h59.58v-10.8ZM72.23,44.88H2.81v2.89h69.41v-2.89ZM61.62,81.33h5.59v-30.18l-.29-.29H7.63v30.46h5.21M38.48,81.33h20.44M15.53,82.36c0,5.6,4.54,10.14,10.14,10.14s10.14-4.54,10.14-10.14M62.9,89.96c0-1.4-1.14-2.54-2.54-2.54s-2.54,1.14-2.54,2.54,1.14,2.54,2.54,2.54,2.54-1.14,2.54-2.54Z"/>
        <path class="cls-1" d="M30.76,82.33c0,2.8-2.27,5.08-5.08,5.08s-5.08-2.27-5.08-5.08M23.3,82.33c0,1.31,1.07,2.38,2.38,2.38s2.38-1.07,2.38-2.38"/>
      </g>
    </g>
  </g>
</svg>